<?xml version="1.0" encoding="UTF-8"?>
<svg id="Layer_1" data-name="Layer 1" xmlns="http://www.w3.org/2000/svg" viewBox="0 0 1080 324.39">
  <defs>
    <style>
      .cls-1 {
        fill: #274a66;
      }

      .cls-2 {
        fill: #ed7872;
      }
    </style>
  </defs>
  <path class="cls-2" d="M468.29,156.23c-12.31-8.85-24.48-12.72-38.17-12.01-25.11,1.3-46.2,22.39-47.14,47.56-1.03,27.3,17.69,50.26,43.48,53.32,32.46,3.85,58.32-18.83,58.37-51.6,.09-54.54-.07-109.09-.11-163.63,0-8.82,.87-9.47,9.23-7.11,26.34,7.45,41.95,28.62,42.56,55.89,.77,34.62,.53,69.24,.47,103.86-.03,19.31-1.52,38.32-10.08,56.38-29.97,63.25-115.5,78.7-165.18,29.6-28.63-28.3-37.4-62.57-27.64-100.73,9.93-38.84,35.91-63.31,74.64-73.78,17.65-4.77,35.39-4.13,53.01,.87,4.7,1.34,6.78,3.61,6.69,8.83-.31,17.05-.12,34.1-.12,52.57Z"/>
  <path class="cls-2" d="M24.97,206.51c0-13.33-.04-26.66,.01-39.99,.04-10.31,4.16-14.73,14.32-14.84,15.12-.16,30.24-.02,45.36-.01,5.89,0,11.35,1.7,16.62,4.18,1.47,.69,4.09,2.5,4.43,.05,.81-5.82,4.85-4.2,8.06-4.23,9.75-.09,19.5-.11,29.24,.14,19.54,.49,33.52,14.82,33.62,34.47,.11,21.29,.04,42.57,.01,63.86,0,6.55-1.46,7.89-8.17,7.9-17.27,.02-18.1-.82-18.1-18.16,0-16.32,.01-32.63,0-48.95-.01-10.4-2.3-12.71-12.44-12.91-3.18-.06-6.36-.29-9.52-.55-6.91-.58-9.91,1.96-9.26,8.71,2.04,21.25,.42,42.54,1.03,63.8,.16,5.43-1.77,7.89-7.55,8.09-17.42,.59-19.2-.94-19.23-18.34-.03-17.11,.04-34.22-.23-51.33-.13-8.14-2.35-10.13-10.52-10.31-7.56-.17-15.12-.05-22.68-.05-8.3,0-8.92,.62-8.9,8.68,.05,20.29,.11,40.59,.15,60.88,.02,9.51-1.04,10.5-10.71,10.33-.99-.02-1.99,0-2.98-.01-10.56-.17-12.57-2.17-12.58-12.62-.02-12.93,0-25.87,0-38.8Z"/>
  <path class="cls-1" d="M873.18,151.77c7.96,0,15.93-.24,23.88,.05,19.26,.7,32.99,14.99,33.15,34.36,.1,12.14,.09,24.28,0,36.42-.14,20.23-14.14,34.8-34.33,35.24-15.52,.34-31.06,.36-46.58-.02-14.07-.35-25.74-5.93-32.07-19.08-6.26-13.01-4.94-25.95,3.35-37.84,5.7-8.17,14.09-12.65,23.78-13.08,15.5-.69,31.04-.28,46.57-.41,2.95-.03,4.62,1.27,4.71,4.12,.14,4.57,.28,9.17-.06,13.72-.3,4.13-2.86,6.37-7.14,6.46-13.12,.29-26.24,.5-39.35,.98-6.92,.25-10.44,4.22-9.92,10.65,.41,4.96,2.79,8.57,8.07,8.65,16.51,.22,33.02,.3,49.53,.08,5.57-.07,8.1-4.28,8.22-9.27,.29-12.13,.37-24.28,0-36.41-.2-6.59-4-9.45-11.27-9.48-15.93-.07-31.85-.19-47.78,.07-5.48,.09-7.43-2.11-7.56-7.35-.44-16.74,.64-17.96,17.47-18.02,5.77-.02,11.55,0,17.32,0,0,.06,0,.12,0,.19Z"/>
  <path class="cls-2" d="M255.24,176.82c-7.56,0-15.13-.18-22.68,.05-6.74,.21-10.08,3.18-10.29,9.89-.36,11.73-.37,23.48-.06,35.21,.19,7.18,3.71,9.89,11.17,10.23,12.11,.56,24.19,.84,36.31,.08,7.81-.49,8.62,.7,8.66,8.31,.09,17.09-.16,17.5-17.18,17.28-11.51-.15-23.03,.98-34.54-.81-16.19-2.52-27.26-12.52-28.78-28.68-1.53-16.21-1.82-32.61,.28-48.82,2.04-15.77,15.13-27.41,31.02-27.78,16.7-.38,33.43-.38,50.13-.08,19.96,.36,34.09,14.34,34.12,34.61,.02,20.18-11.96,34.2-32.51,35.6-14.46,.98-29.03,.26-43.55,.33-2.7,.01-5.1-.94-5.3-3.7-.39-5.52-1.05-11.13,.65-16.58,1.46-4.66,5.57-4.69,9.3-4.74,11.34-.15,22.68,0,34.02-.1,4.74-.04,9.27-1.02,11.52-5.88,3.2-6.93-1.08-13.68-9.02-14.44-.4-.04-.79-.07-1.19-.07-7.36,0-14.72,0-22.09,0,0,.03,0,.06,0,.09Z"/>
  <path class="cls-1" d="M797.73,224.63c-1.97,10.16-5.36,19.09-12.63,26.08-10.18,9.78-23.8,9.8-34.33,.26-12.15-11.02-15.71-25.32-15.7-40.99,0-20.3,0-40.6,0-60.9,0-4.18-.19-8.35-1.44-12.39-2.48-8.02-6.62-9.96-14.48-6.78-1.44,.58-2.86,1.2-4.36,1.83-1.82-10.38,5.55-22.99,16.8-29.14,10.19-5.57,19.93-4.23,28.42,3.77,10.83,10.2,15.23,23,15.29,37.52,.08,20.9-.03,41.8,.07,62.69,.02,4.16,.33,8.36,1.05,12.45,1.44,8.22,6.32,10.94,14.29,8.29,2.2-.73,4.33-1.65,7.01-2.69Z"/>
  <path class="cls-1" d="M637.57,225.31c.59,15.22-11.78,30.52-25.93,32.54-6.64,.95-12.66-.9-17.77-5.22-11.13-9.4-16.83-21.55-16.98-36.03-.22-22.29-.09-44.58-.03-66.87,.01-4.02-.38-7.96-1.38-11.81-2.18-8.4-7.17-10.88-15.26-7.7-1.83,.72-3.6,1.58-5.91,2.6,1.77-11.57,6.19-21.24,15.12-28.41,8.79-7.05,20.86-6.97,29.74,.25,10.77,8.76,16.72,20.3,16.98,34.12,.43,23.08,.26,46.17,.25,69.25,0,3.82,.37,7.57,1.31,11.22,2.24,8.74,7.31,11.23,15.61,7.91,1.28-.51,2.53-1.1,4.24-1.85Z"/>
  <path class="cls-1" d="M717.93,224.62c-1.84,11.13-5.77,20.23-13.77,27.19-9.37,8.15-21.34,8.38-31.1,.68-11.77-9.29-16.94-21.97-17.28-36.47-.49-21.28-.24-42.57-.31-63.85,0-1.79,0-3.58,0-5.37-.1-16.76-4.99-20.41-20.55-15.35-1.6-9.79,6.09-22.92,16.91-28.89,9.99-5.51,20-4.36,28.48,3.66,9.69,9.16,14.97,20.4,14.97,33.9,0,21.09-.06,42.18,.05,63.26,.02,4.56,.37,9.15,1.03,13.66,1.49,10.17,6.85,13.27,16.38,9.77,1.49-.55,2.92-1.22,5.18-2.18Z"/>
  <path class="cls-1" d="M950.54,214.3c.7-10.41-1.45-23.23,1.21-35.82,3.27-15.49,15.26-25.97,31.09-26.42,18.5-.53,37.02-.2,55.52-.32,4.05-.03,5.7,1.71,5.61,5.79-.07,3.35,.42,6.73,.8,10.08,.92,8.24-2.09,11.85-10.27,11.19-14.91-1.21-29.83-.3-44.74-.53-10.58-.16-13.17,2.28-13.26,12.83-.17,19.31-.03,38.62-.06,57.92-.01,8.01-1.01,9-8.86,9.05-16.45,.1-16.94-.37-17.04-17.02-.05-8.16,0-16.32,0-26.76Z"/>
  <path class="cls-1" d="M418.65,193.56c0-5.76-.26-11.54,.07-17.29,.34-5.76,3.77-8.31,8.75-5.91,11.44,5.52,22.4,11.98,32.69,19.45,3.3,2.39,3.67,6.08,.21,8.56-10.99,7.87-22.95,14.17-35.11,19.99-3.7,1.77-6.17-.44-6.24-4.56-.11-6.75-.03-13.5-.03-20.25-.12,0-.23,0-.35,0Z"/>
</svg>