<svg id="Layer_1" data-name="Layer 1" xmlns="http://www.w3.org/2000/svg" viewBox="0 0 179 178"><defs><style>.cls-1{fill:#e55151;}.cls-2{fill:#ea5c5c;}.cls-3,.cls-4{fill:#fff;}.cls-4{opacity:0.4;isolation:isolate;}</style></defs><path class="cls-1" d="M0,2.5A2.5,2.5,0,0,1,2.5,0H16V16H0Z"/><path class="cls-1" d="M163,162h16v13.5a2.5,2.5,0,0,1-2.5,2.5H163Z"/><path class="cls-2" d="M177.29,176.3,1.72,1.71A1,1,0,0,1,2.42,0H81.86a10,10,0,0,1,7.07,2.93l87.14,87.14A10,10,0,0,1,179,97.14V175.6A1,1,0,0,1,177.29,176.3Z"/><path class="cls-3" d="M123.18,56.06,118,66.19l8,8-11.22-1.78-5.16,10.12L107.9,71.35,96.67,69.57l10.13-5.16L105,53.18l8,8Z"/><path class="cls-4" d="M89.42,34.81,86.24,41l5,4.94-6.91-1.09L81.1,51.12,80,44.21,73.1,43.12l6.23-3.18L78.24,33l5,4.94Z"/><path class="cls-4" d="M146.42,86.81,143.24,93,148.18,98l-6.9-1.09-3.18,6.23L137,96.21l-6.91-1.09,6.24-3.18-1.1-6.9L140.18,90Z"/></svg>